<svg width="77" height="77" viewBox="0 0 77 77" fill="none" xmlns="http://www.w3.org/2000/svg">
<path d="M32.0833 73.7913C32.0833 74.6422 31.7453 75.4583 31.1436 76.06C30.542 76.6617 29.7259 76.9997 28.875 76.9997H3.20833C2.35743 76.9997 1.54138 76.6617 0.939699 76.06C0.33802 75.4583 0 74.6422 0 73.7913C0 72.9404 0.33802 72.1244 0.939699 71.5227C1.54138 70.921 2.35743 70.583 3.20833 70.583H28.875C29.7259 70.583 30.542 70.921 31.1436 71.5227C31.7453 72.1244 32.0833 72.9404 32.0833 73.7913Z" fill="white"/>
<path d="M3.20833 64.1667H22.4583C23.3092 64.1667 24.1253 63.8286 24.727 63.227C25.3286 62.6253 25.6667 61.8092 25.6667 60.9583C25.6667 60.1074 25.3286 59.2914 24.727 58.6897C24.1253 58.088 23.3092 57.75 22.4583 57.75H3.20833C2.35743 57.75 1.54138 58.088 0.939699 58.6897C0.33802 59.2914 0 60.1074 0 60.9583C0 61.8092 0.33802 62.6253 0.939699 63.227C1.54138 63.8286 2.35743 64.1667 3.20833 64.1667Z" fill="white"/>
<path d="M3.20833 51.3337H16.0417C16.8926 51.3337 17.7086 50.9956 18.3103 50.394C18.912 49.7923 19.25 48.9762 19.25 48.1253C19.25 47.2744 18.912 46.4584 18.3103 45.8567C17.7086 45.255 16.8926 44.917 16.0417 44.917H3.20833C2.35743 44.917 1.54138 45.255 0.939699 45.8567C0.33802 46.4584 0 47.2744 0 48.1253C0 48.9762 0.33802 49.7923 0.939699 50.394C1.54138 50.9956 2.35743 51.3337 3.20833 51.3337Z" fill="white"/>
<path d="M38.5 0C28.2892 0 18.4965 4.05624 11.2764 11.2764C4.05624 18.4965 0 28.2892 0 38.5C0 38.6957 0.0256667 38.885 0.028875 39.0807C1.04783 38.7073 2.12315 38.5109 3.20833 38.5H16.0417C17.6166 38.4947 19.1687 38.8772 20.5608 39.6138C21.9529 40.3504 23.1422 41.4185 24.0237 42.7236C24.9052 44.0288 25.4519 45.5309 25.6153 47.0974C25.7787 48.6639 25.554 50.2465 24.9608 51.7055C26.2745 52.0502 27.4994 52.6713 28.5538 53.5273C29.6083 54.3833 30.4679 55.4544 31.0752 56.6691C31.6826 57.8839 32.0237 59.2142 32.0759 60.5714C32.128 61.9285 31.8899 63.2811 31.3775 64.5388C32.6606 64.8661 33.8606 65.4591 34.9001 66.2794C35.9396 67.0997 36.7953 68.129 37.4119 69.3008C38.0285 70.4727 38.3923 71.7609 38.4797 73.0821C38.5671 74.4034 38.3762 75.7283 37.9193 76.9711C38.115 76.9711 38.3043 77 38.5 77C48.7108 77 58.5035 72.9438 65.7236 65.7236C72.9438 58.5035 77 48.7108 77 38.5C77 28.2892 72.9438 18.4965 65.7236 11.2764C58.5035 4.05624 48.7108 0 38.5 0ZM50.3933 50.3933C49.7916 50.9948 48.9757 51.3326 48.125 51.3326C47.2743 51.3326 46.4584 50.9948 45.8567 50.3933L36.2317 40.7683C35.63 40.1668 35.2918 39.3508 35.2917 38.5V22.4583C35.2917 21.6074 35.6297 20.7914 36.2314 20.1897C36.833 19.588 37.6491 19.25 38.5 19.25C39.3509 19.25 40.167 19.588 40.7686 20.1897C41.3703 20.7914 41.7083 21.6074 41.7083 22.4583V37.1718L50.3933 45.8567C50.9948 46.4584 51.3326 47.2743 51.3326 48.125C51.3326 48.9757 50.9948 49.7916 50.3933 50.3933Z" fill="white"/>
</svg>
