<svg width="30" height="30" viewBox="0 0 30 30" fill="none" xmlns="http://www.w3.org/2000/svg">
<path d="M11.5625 22.5723H0.552734V11.5625C0.552734 9.38498 1.19845 7.25636 2.40822 5.44581C3.61799 3.63526 5.33748 2.22411 7.34925 1.39081C9.36102 0.557505 11.5747 0.339475 13.7104 0.764289C15.8461 1.1891 17.8078 2.23768 19.3476 3.77743C20.8873 5.31717 21.9359 7.27892 22.3607 9.41461C22.7855 11.5503 22.5675 13.764 21.7342 15.7758C20.9009 17.7875 19.4898 19.507 17.6792 20.7168C15.8687 21.9266 13.74 22.5723 11.5625 22.5723ZM25.0189 11.6604C24.9908 15.1946 23.5743 18.576 21.0752 21.0752C18.576 23.5743 15.1946 24.9908 11.6604 25.0189C12.5185 26.5052 13.7523 27.7396 15.2381 28.5985C16.7239 29.4573 18.4095 29.9104 20.1257 29.9121H29.9121V20.1257C29.9104 18.4095 29.4573 16.7239 28.5985 15.2381C27.7396 13.7523 26.5052 12.5185 25.0189 11.6604Z" fill="white"/>
</svg>
