<svg width="127" height="39" viewBox="0 0 127 39" fill="none" xmlns="http://www.w3.org/2000/svg">
<rect x="95.4277" y="21.0879" width="17.4332" height="17.474" rx="2" transform="rotate(90 95.4277 21.0879)" fill="white"/>
<path d="M72.4375 20.916C73.5421 20.916 74.4375 21.8114 74.4375 22.916L74.4375 36.3493C74.4375 37.4538 73.5421 38.3493 72.4375 38.3493L58.9635 38.3493C57.8589 38.3493 56.9635 37.4538 56.9635 36.3493L56.9635 22.916C56.9635 21.8114 57.8589 20.916 58.9635 20.916L72.4375 20.916Z" fill="white"/>
<path d="M51.4746 20.916C52.5792 20.916 53.4746 21.8114 53.4746 22.916L53.4746 36.3493C53.4746 37.4538 52.5792 38.3493 51.4746 38.3493L38.0006 38.3493C36.896 38.3493 36.0006 37.4538 36.0006 36.3493L36.0006 22.916C36.0006 21.8114 36.896 20.916 38.0006 20.916L51.4746 20.916Z" fill="white"/>
<rect x="74.4375" width="17.4332" height="17.474" rx="2" transform="rotate(90 74.4375 0)" fill="white"/>
<path d="M9.15685 6.77305C8.73202 7.50874 8.9841 8.44953 9.71992 8.87444L14.1332 11.4225C8.36714 13.5909 4.4286 19.3475 4.85159 25.8011C5.16301 30.5513 7.80211 34.8294 11.9112 37.2445C12.6438 37.675 13.5865 37.4302 14.017 36.6978C14.4475 35.9652 14.2027 35.0225 13.4702 34.5921C10.2406 32.6939 8.16655 29.3325 7.92176 25.6C7.58759 20.5014 10.7183 15.9563 15.2899 14.275L12.4737 19.1529C12.049 19.8885 12.301 20.8294 13.0369 21.2542C13.7727 21.679 14.7134 21.4269 15.1383 20.6912L19.6695 12.8427C19.8819 12.4748 19.9251 12.0557 19.8232 11.6755C19.7213 11.2953 19.4744 10.9537 19.1065 10.7413L11.2584 6.21015C10.5226 5.78514 9.58166 6.03725 9.15685 6.77305Z" fill="white"/>
<path d="M117.648 35.9848C118.073 35.2491 117.821 34.3083 117.085 33.8834L112.671 31.3353C118.438 29.1669 122.376 23.4103 121.953 16.9567C121.642 12.2065 119.003 7.92843 114.893 5.51331C114.161 5.08285 113.218 5.3276 112.788 6.06004C112.357 6.79257 112.602 7.73532 113.334 8.16568C116.564 10.0639 118.638 13.4253 118.883 17.1578C119.217 22.2565 116.086 26.8015 111.515 28.4828L114.331 23.605C114.756 22.8693 114.504 21.9284 113.768 21.5036C113.032 21.0788 112.091 21.3309 111.666 22.0667L107.135 29.9151C106.923 30.283 106.88 30.7021 106.981 31.0823C107.083 31.4625 107.33 31.8041 107.698 32.0165L115.546 36.5477C116.282 36.9727 117.223 36.7206 117.648 35.9848Z" fill="white"/>
</svg>
