<svg width="119" height="39" viewBox="0 0 119 39" fill="none" xmlns="http://www.w3.org/2000/svg">
<path d="M19.5 27.9236H4.5L9.435 22.7107C9.57559 22.5634 9.68718 22.3882 9.76334 22.1951C9.83949 22.002 9.8787 21.7949 9.8787 21.5857C9.8787 21.3766 9.83949 21.1695 9.76334 20.9764C9.68718 20.7833 9.57559 20.6081 9.435 20.4608C9.15396 20.1656 8.77378 20 8.3775 20C7.98122 20 7.60104 20.1656 7.32 20.4608L0.885 27.274C0.321619 27.8656 0.00334918 28.669 0 29.5081C0.00729988 30.3417 0.325267 31.1387 0.885 31.7264L7.32 38.5396C7.45986 38.6863 7.6257 38.8025 7.80805 38.8815C7.99041 38.9604 8.18571 39.0007 8.3828 39C8.5799 38.9993 8.77492 38.9575 8.95674 38.8772C9.13857 38.7968 9.30363 38.6794 9.4425 38.5317C9.58137 38.384 9.69134 38.2088 9.76612 38.0161C9.8409 37.8235 9.87903 37.6172 9.87833 37.409C9.87764 37.2008 9.83813 36.9948 9.76206 36.8028C9.68599 36.6107 9.57486 36.4364 9.435 36.2897L4.5 31.0926H19.5C19.8978 31.0926 20.2794 30.9256 20.5607 30.6285C20.842 30.3313 21 29.9283 21 29.5081C21 29.0879 20.842 28.6849 20.5607 28.3877C20.2794 28.0906 19.8978 27.9236 19.5 27.9236Z" fill="white"/>
<path d="M99.5 27.9236H114.5L109.565 22.7107C109.424 22.5634 109.313 22.3882 109.237 22.1951C109.161 22.002 109.121 21.7949 109.121 21.5857C109.121 21.3766 109.161 21.1695 109.237 20.9764C109.313 20.7833 109.424 20.6081 109.565 20.4608C109.846 20.1656 110.226 20 110.622 20C111.019 20 111.399 20.1656 111.68 20.4608L118.115 27.274C118.678 27.8656 118.997 28.669 119 29.5081C118.993 30.3417 118.675 31.1387 118.115 31.7264L111.68 38.5396C111.54 38.6863 111.374 38.8025 111.192 38.8815C111.01 38.9604 110.814 39.0007 110.617 39C110.42 38.9993 110.225 38.9575 110.043 38.8772C109.861 38.7968 109.696 38.6794 109.557 38.5317C109.419 38.384 109.309 38.2088 109.234 38.0161C109.159 37.8235 109.121 37.6172 109.122 37.409C109.122 37.2008 109.162 36.9948 109.238 36.8028C109.314 36.6107 109.425 36.4364 109.565 36.2897L114.5 31.0926H99.5C99.1022 31.0926 98.7206 30.9256 98.4393 30.6285C98.158 30.3313 98 29.9283 98 29.5081C98 29.0879 98.158 28.6849 98.4393 28.3877C98.7206 28.0906 99.1022 27.9236 99.5 27.9236Z" fill="white"/>
<rect x="89.4277" y="21.0879" width="17.4332" height="17.474" rx="2" transform="rotate(90 89.4277 21.0879)" fill="white"/>
<path d="M66.4375 20.916C67.5421 20.916 68.4375 21.8114 68.4375 22.916L68.4375 36.3493C68.4375 37.4538 67.5421 38.3493 66.4375 38.3493L52.9635 38.3493C51.8589 38.3493 50.9635 37.4538 50.9635 36.3493L50.9635 22.916C50.9635 21.8114 51.8589 20.916 52.9635 20.916L66.4375 20.916Z" fill="white"/>
<path d="M45.4746 20.916C46.5792 20.916 47.4746 21.8114 47.4746 22.916L47.4746 36.3493C47.4746 37.4538 46.5792 38.3493 45.4746 38.3493L32.0006 38.3493C30.896 38.3493 30.0006 37.4538 30.0006 36.3493L30.0006 22.916C30.0006 21.8114 30.896 20.916 32.0006 20.916L45.4746 20.916Z" fill="white"/>
<rect x="68.4375" width="17.4332" height="17.474" rx="2" transform="rotate(90 68.4375 0)" fill="white"/>
</svg>
