<svg xmlns="http://www.w3.org/2000/svg" version="1.1" xmlns:xlink="http://www.w3.org/1999/xlink" xmlns:svgjs="http://svgjs.dev/svgjs" width="38" height="38"><svg width="38" height="38" viewBox="0 0 38 38" fill="none" xmlns="http://www.w3.org/2000/svg">
<circle cx="19" cy="19" r="19" fill="black"></circle>
<g filter="url(#filter0_d_1021_55)">
<rect x="5.73926" y="12.8408" width="7.21414" height="7.21414" transform="rotate(-45 5.73926 12.8408)" fill="#FFB938"></rect>
<rect x="5.73926" y="12.8408" width="0.901767" height="0.901767" transform="rotate(-45 5.73926 12.8408)" fill="white"></rect>
<rect x="7.65137" y="13.478" width="0.901767" height="0.901767" transform="rotate(-45 7.65137 13.478)" fill="white"></rect>
<rect x="7.65137" y="12.2026" width="0.901767" height="0.901767" transform="rotate(-45 7.65137 12.2026)" fill="white"></rect>
<rect x="7.01367" y="12.8408" width="0.901767" height="0.901767" transform="rotate(-45 7.01367 12.8408)" fill="white"></rect>
<rect x="5.73926" y="24.3188" width="7.21414" height="7.21414" transform="rotate(-45 5.73926 24.3188)" fill="#D82800"></rect>
<rect x="5.73926" y="24.3188" width="0.901767" height="0.901767" transform="rotate(-45 5.73926 24.3188)" fill="white"></rect>
<rect x="7.65234" y="24.9565" width="0.901767" height="0.901767" transform="rotate(-45 7.65234 24.9565)" fill="white"></rect>
<rect x="7.65234" y="23.6812" width="0.901767" height="0.901767" transform="rotate(-45 7.65234 23.6812)" fill="white"></rect>
<rect x="7.0166" y="24.3188" width="0.901767" height="0.901767" transform="rotate(-45 7.0166 24.3188)" fill="white"></rect>
<rect x="5.73926" y="24.3188" width="7.21414" height="7.21414" transform="rotate(-45 5.73926 24.3188)" fill="#FFB938"></rect>
<rect x="5.73926" y="24.3188" width="0.901767" height="0.901767" transform="rotate(-45 5.73926 24.3188)" fill="white"></rect>
<rect x="7.65137" y="24.957" width="0.901767" height="0.901767" transform="rotate(-45 7.65137 24.957)" fill="white"></rect>
<rect x="7.65137" y="23.6816" width="0.901767" height="0.901767" transform="rotate(-45 7.65137 23.6816)" fill="white"></rect>
<rect x="7.01562" y="24.3188" width="0.901767" height="0.901767" transform="rotate(-45 7.01562 24.3188)" fill="white"></rect>
<rect x="11.4795" y="18.5801" width="7.21414" height="7.21414" transform="rotate(-45 11.4795 18.5801)" fill="#D82800"></rect>
<rect x="11.4795" y="18.5801" width="0.901767" height="0.901767" transform="rotate(-45 11.4795 18.5801)" fill="white"></rect>
<rect x="13.3926" y="19.2183" width="0.901767" height="0.901767" transform="rotate(-45 13.3926 19.2183)" fill="white"></rect>
<rect x="13.3926" y="17.9419" width="0.901767" height="0.901767" transform="rotate(-45 13.3926 17.9419)" fill="white"></rect>
<rect x="12.7559" y="18.5801" width="0.901767" height="0.901767" transform="rotate(-45 12.7559 18.5801)" fill="white"></rect>
<rect x="11.4795" y="18.5801" width="7.21414" height="7.21414" transform="rotate(-45 11.4795 18.5801)" fill="#FFB938"></rect>
<rect x="11.4795" y="18.5801" width="0.901767" height="0.901767" transform="rotate(-45 11.4795 18.5801)" fill="white"></rect>
<rect x="13.3916" y="19.2183" width="0.901767" height="0.901767" transform="rotate(-45 13.3916 19.2183)" fill="white"></rect>
<rect x="13.3916" y="17.9419" width="0.901767" height="0.901767" transform="rotate(-45 13.3916 17.9419)" fill="white"></rect>
<rect x="12.7559" y="18.5801" width="0.901767" height="0.901767" transform="rotate(-45 12.7559 18.5801)" fill="white"></rect>
<rect x="22.957" y="18.5801" width="7.21414" height="7.21414" transform="rotate(-45 22.957 18.5801)" fill="#D82800"></rect>
<rect x="22.957" y="18.5801" width="0.901767" height="0.901767" transform="rotate(-45 22.957 18.5801)" fill="white"></rect>
<rect x="24.2314" y="18.5801" width="5.4106" height="5.4106" transform="rotate(-45 24.2314 18.5801)" fill="white"></rect>
<rect x="17.2197" y="24.3184" width="7.21414" height="7.21414" transform="rotate(-45 17.2197 24.3184)" fill="#D82800"></rect>
<rect x="17.2197" y="24.3184" width="0.901767" height="0.901767" transform="rotate(-45 17.2197 24.3184)" fill="white"></rect>
<rect x="18.4961" y="24.3184" width="0.901767" height="0.901767" transform="rotate(-45 18.4961 24.3184)" fill="white"></rect>
<rect x="19.1318" y="24.9556" width="0.901767" height="0.901767" transform="rotate(-45 19.1318 24.9556)" fill="white"></rect>
<rect x="19.1318" y="23.6812" width="0.901767" height="0.901767" transform="rotate(-45 19.1318 23.6812)" fill="white"></rect>
<rect x="17.2197" y="12.8413" width="7.21414" height="7.21414" transform="rotate(-45 17.2197 12.8413)" fill="#D82800"></rect>
<rect x="17.2197" y="12.8413" width="0.901767" height="0.901767" transform="rotate(-45 17.2197 12.8413)" fill="white"></rect>
<rect x="18.4961" y="12.8413" width="0.901767" height="0.901767" transform="rotate(-45 18.4961 12.8413)" fill="white"></rect>
<rect x="19.1318" y="13.4785" width="0.901767" height="0.901767" transform="rotate(-45 19.1318 13.4785)" fill="white"></rect>
<rect x="19.1318" y="12.2026" width="0.901767" height="0.901767" transform="rotate(-45 19.1318 12.2026)" fill="white"></rect>
</g>
<defs>
<filter id="SvgjsFilter1006" x="1.73926" y="7.73975" width="35.4199" height="29.6802" filterUnits="userSpaceOnUse" color-interpolation-filters="sRGB">
<feFlood flood-opacity="0" result="BackgroundImageFix"></feFlood>
<feColorMatrix in="SourceAlpha" type="matrix" values="0 0 0 0 0 0 0 0 0 0 0 0 0 0 0 0 0 0 127 0" result="hardAlpha"></feColorMatrix>
<feOffset dy="4"></feOffset>
<feGaussianBlur stdDeviation="2"></feGaussianBlur>
<feComposite in2="hardAlpha" operator="out"></feComposite>
<feColorMatrix type="matrix" values="0 0 0 0 0 0 0 0 0 0 0 0 0 0 0 0 0 0 0.25 0"></feColorMatrix>
<feBlend mode="normal" in2="BackgroundImageFix" result="effect1_dropShadow_1021_55"></feBlend>
<feBlend mode="normal" in="SourceGraphic" in2="effect1_dropShadow_1021_55" result="shape"></feBlend>
</filter>
</defs>
</svg><style>@media (prefers-color-scheme: light) { :root { filter: none; } }
@media (prefers-color-scheme: dark) { :root { filter: none; } }
</style></svg>