<svg width="20" height="20" viewBox="0 0 20 20" fill="none" xmlns="http://www.w3.org/2000/svg">
<path d="M17.4359 0H2.5641C1.14799 0 0 1.14799 0 2.5641V17.4359C0 18.852 1.14799 20 2.5641 20H17.4359C18.852 20 20 18.852 20 17.4359V2.5641C20 1.14799 18.852 0 17.4359 0Z" fill="#58D774"/>
<path d="M8.44055 13.8474C8.14937 13.8475 7.87019 13.7353 7.6645 13.5355L5.31824 11.2613C5.06579 11.0164 5.06579 10.6194 5.31824 10.3746C5.5708 10.1298 5.98014 10.1298 6.2327 10.3746L8.44055 12.5155L14.2815 6.85155C14.5341 6.60678 14.9434 6.60678 15.196 6.85155C15.4484 7.09642 15.4484 7.49339 15.196 7.73826L9.21655 13.5355C9.01086 13.7353 8.73168 13.8475 8.44055 13.8474Z" fill="#122B17" stroke="#122B17" stroke-width="0.75"/>
</svg>
