<svg width="9" height="18" viewBox="0 0 9 18" fill="none" xmlns="http://www.w3.org/2000/svg">
<path d="M9 1.12679C8.99973 1.4254 8.87945 1.71168 8.66559 1.92269L2.83474 7.68324C2.65826 7.85755 2.51825 8.0645 2.42274 8.29228C2.32722 8.52006 2.27806 8.76419 2.27806 9.01074C2.27806 9.25729 2.32722 9.50143 2.42274 9.7292C2.51825 9.95698 2.65826 10.1639 2.83474 10.3382L8.65799 16.0913C8.86566 16.3037 8.98057 16.5882 8.97797 16.8835C8.97537 17.1788 8.85548 17.4613 8.64411 17.6701C8.43274 17.8789 8.1468 17.9974 7.84789 18C7.54898 18.0025 7.26101 17.889 7.046 17.6838L1.22275 11.9353C0.439753 11.1602 0 10.1099 0 9.01487C0 7.91982 0.439753 6.86951 1.22275 6.09443L7.0536 0.330135C7.21303 0.172519 7.41621 0.0651696 7.63743 0.0216696C7.85864 -0.0218304 8.08794 0.000474535 8.29631 0.085762C8.50469 0.171049 8.68278 0.315486 8.80804 0.500796C8.9333 0.686105 9.0001 0.903959 9 1.12679Z" fill="white"/>
</svg>
