<svg width="18" height="18" viewBox="0 0 18 18" fill="none" xmlns="http://www.w3.org/2000/svg">
<path d="M0 1.12679C0.000266085 1.4254 0.12055 1.71168 0.334407 1.92269L6.16526 7.68324C6.34174 7.85755 6.48175 8.0645 6.57726 8.29228C6.67278 8.52006 6.72194 8.76419 6.72194 9.01074C6.72194 9.25729 6.67278 9.50143 6.57726 9.7292C6.48175 9.95698 6.34174 10.1639 6.16526 10.3382L0.342007 16.0913C0.134342 16.3037 0.0194334 16.5882 0.0220308 16.8835C0.0246283 17.1788 0.144524 17.4613 0.355894 17.6701C0.567264 17.8789 0.853197 17.9974 1.15211 18C1.45102 18.0025 1.73899 17.889 1.954 17.6838L7.77725 11.9353C8.56025 11.1602 9 10.1099 9 9.01487C9 7.91982 8.56025 6.86951 7.77725 6.09443L1.9464 0.330135C1.78697 0.172519 1.58379 0.0651696 1.36257 0.0216696C1.14136 -0.0218304 0.912062 0.000474535 0.703686 0.085762C0.49531 0.171049 0.317225 0.315486 0.191964 0.500796C0.0667036 0.686105 -0.000102238 0.903959 0 1.12679Z" fill="white"/>
<path d="M9 1.12679C9.00027 1.4254 9.12055 1.71168 9.33441 1.92269L15.1653 7.68324C15.3417 7.85755 15.4817 8.0645 15.5773 8.29228C15.6728 8.52006 15.7219 8.76419 15.7219 9.01074C15.7219 9.25729 15.6728 9.50143 15.5773 9.7292C15.4817 9.95698 15.3417 10.1639 15.1653 10.3382L9.34201 16.0913C9.13434 16.3037 9.01943 16.5882 9.02203 16.8835C9.02463 17.1788 9.14452 17.4613 9.35589 17.6701C9.56726 17.8789 9.8532 17.9974 10.1521 18C10.451 18.0025 10.739 17.889 10.954 17.6838L16.7773 11.9353C17.5602 11.1602 18 10.1099 18 9.01487C18 7.91982 17.5602 6.86951 16.7773 6.09443L10.9464 0.330135C10.787 0.172519 10.5838 0.0651696 10.3626 0.0216696C10.1414 -0.0218304 9.91206 0.000474535 9.70369 0.085762C9.49531 0.171049 9.31722 0.315486 9.19196 0.500796C9.0667 0.686105 8.9999 0.903959 9 1.12679Z" fill="white"/>
</svg>
