<svg width="85" height="85" viewBox="0 0 85 85" fill="none" xmlns="http://www.w3.org/2000/svg">
<g filter="url(#filter0_d_3407_3)">
<path fill-rule="evenodd" clip-rule="evenodd" d="M79.4036 0.0457295L60.026 5.23797L44.2312 22.1764L58.3003 37.2597L75.7615 20.9738L80.9539 1.59613C81.0744 1.14828 80.9562 0.702716 80.6266 0.373086C80.2992 0.0457294 79.8537 -0.0747559 79.4036 0.0457295ZM5.59642 0.0457295L24.974 5.23797L65.8318 49.0468L69.1712 45.7096L73.7337 50.2722L66.1503 57.8559L73.8724 65.5783C75.7615 65.1305 77.8304 65.6443 79.3035 67.1174C81.5655 69.377 81.5655 73.0439 79.3035 75.3035C77.0439 77.5655 73.3768 77.5655 71.1174 75.3035C69.6441 73.8304 69.1303 71.7617 69.5782 69.8726L61.856 62.1502L54.2723 69.7339L49.7098 65.1714L53.047 61.8319L9.23824 20.9738L4.04603 1.59613C3.92555 1.14828 4.04603 0.702716 4.37339 0.373086C4.70302 0.0457294 5.14858 -0.0747559 5.59642 0.0457295ZM26.8268 40.8357L19.168 49.0468L15.8308 45.7096L11.266 50.2722L18.8497 57.8559L11.1273 65.5783C9.23824 65.1305 7.16954 65.6443 5.69645 67.1174C3.43452 69.377 3.43452 73.0439 5.69645 75.3035C7.9561 77.5655 11.6229 77.5655 13.8848 75.3035C15.3579 73.8304 15.8694 71.7617 15.4239 69.8726L23.144 62.1502L30.7276 69.7339L35.2926 65.1714L31.9529 61.8319L40.6462 53.7253L26.8268 40.8357Z" fill="#BA4CFF"/>
</g>
<defs>
<filter id="filter0_d_3407_3" x="0" y="0" width="85" height="85" filterUnits="userSpaceOnUse" color-interpolation-filters="sRGB">
<feFlood flood-opacity="0" result="BackgroundImageFix"/>
<feColorMatrix in="SourceAlpha" type="matrix" values="0 0 0 0 0 0 0 0 0 0 0 0 0 0 0 0 0 0 127 0" result="hardAlpha"/>
<feOffset dy="4"/>
<feGaussianBlur stdDeviation="2"/>
<feComposite in2="hardAlpha" operator="out"/>
<feColorMatrix type="matrix" values="0 0 0 0 0 0 0 0 0 0 0 0 0 0 0 0 0 0 0.5 0"/>
<feBlend mode="normal" in2="BackgroundImageFix" result="effect1_dropShadow_3407_3"/>
<feBlend mode="normal" in="SourceGraphic" in2="effect1_dropShadow_3407_3" result="shape"/>
</filter>
</defs>
</svg>
