<svg width="85" height="85" viewBox="0 0 85 85" fill="none" xmlns="http://www.w3.org/2000/svg">
<g filter="url(#filter0_d_3417_2)">
<mask id="mask0_3417_2" style="mask-type:luminance" maskUnits="userSpaceOnUse" x="4" y="0" width="77" height="77">
<path d="M81 0H4V77H81V0Z" fill="white"/>
</mask>
<g mask="url(#mask0_3417_2)">
<path d="M68.1667 33.6875C66.0038 33.7616 63.8541 34.054 61.75 34.5602V28.875C61.75 26.3223 60.7359 23.8741 58.9309 22.0691C57.126 20.2641 54.6777 19.25 52.125 19.25H44.8357C45.3439 17.1463 45.6362 14.9963 45.7083 12.8333C45.7083 9.42973 44.3563 6.1655 41.9496 3.7588C39.5429 1.35208 36.2787 0 32.875 0C29.4714 0 26.2072 1.35208 23.8005 3.7588C21.3938 6.1655 20.0417 9.42973 20.0417 12.8333C20.1138 14.9963 20.4062 17.1463 20.9143 19.25H13.625C11.0723 19.25 8.62414 20.2641 6.8191 22.0691C5.01406 23.8741 4 26.3223 4 28.875V77H24.9697L24.2125 73.7917C23.6712 71.6916 23.3487 69.5413 23.25 67.375C23.25 64.8223 24.2641 62.374 26.0691 60.5691C27.8741 58.7641 30.3223 57.75 32.875 57.75C35.4277 57.75 37.876 58.7641 39.6809 60.5691C41.4859 62.374 42.5 64.8223 42.5 67.375C42.4013 69.5413 42.0788 71.6916 41.5375 73.7917L40.7772 77H61.75V58.4815C63.8541 58.9877 66.0038 59.28 68.1667 59.3542C71.5704 59.3542 74.8346 58.0021 77.2413 55.5954C79.6479 53.1887 81 49.9245 81 46.5208C81 43.1171 79.6479 39.8529 77.2413 37.4462C74.8346 35.0396 71.5704 33.6875 68.1667 33.6875Z" fill="#BA4CFF"/>
</g>
</g>
<defs>
<filter id="filter0_d_3417_2" x="0" y="0" width="85" height="85" filterUnits="userSpaceOnUse" color-interpolation-filters="sRGB">
<feFlood flood-opacity="0" result="BackgroundImageFix"/>
<feColorMatrix in="SourceAlpha" type="matrix" values="0 0 0 0 0 0 0 0 0 0 0 0 0 0 0 0 0 0 127 0" result="hardAlpha"/>
<feOffset dy="4"/>
<feGaussianBlur stdDeviation="2"/>
<feComposite in2="hardAlpha" operator="out"/>
<feColorMatrix type="matrix" values="0 0 0 0 0 0 0 0 0 0 0 0 0 0 0 0 0 0 0.5 0"/>
<feBlend mode="normal" in2="BackgroundImageFix" result="effect1_dropShadow_3417_2"/>
<feBlend mode="normal" in="SourceGraphic" in2="effect1_dropShadow_3417_2" result="shape"/>
</filter>
</defs>
</svg>
