<svg width="85" height="85" viewBox="0 0 85 85" fill="none" xmlns="http://www.w3.org/2000/svg">
<g filter="url(#filter0_d_3408_18)">
<path d="M36.0833 73.7913C36.0833 74.6422 35.7453 75.4583 35.1436 76.06C34.542 76.6617 33.7259 76.9997 32.875 76.9997H7.20833C6.35743 76.9997 5.54138 76.6617 4.9397 76.06C4.33802 75.4583 4 74.6422 4 73.7913C4 72.9404 4.33802 72.1244 4.9397 71.5227C5.54138 70.921 6.35743 70.583 7.20833 70.583H32.875C33.7259 70.583 34.542 70.921 35.1436 71.5227C35.7453 72.1244 36.0833 72.9404 36.0833 73.7913Z" fill="#BA4CFF"/>
<path d="M7.20833 64.1667H26.4583C27.3092 64.1667 28.1253 63.8286 28.727 63.227C29.3286 62.6253 29.6667 61.8092 29.6667 60.9583C29.6667 60.1074 29.3286 59.2914 28.727 58.6897C28.1253 58.088 27.3092 57.75 26.4583 57.75H7.20833C6.35743 57.75 5.54138 58.088 4.9397 58.6897C4.33802 59.2914 4 60.1074 4 60.9583C4 61.8092 4.33802 62.6253 4.9397 63.227C5.54138 63.8286 6.35743 64.1667 7.20833 64.1667Z" fill="#BA4CFF"/>
<path d="M7.20833 51.3337H20.0417C20.8926 51.3337 21.7086 50.9956 22.3103 50.394C22.912 49.7923 23.25 48.9762 23.25 48.1253C23.25 47.2744 22.912 46.4584 22.3103 45.8567C21.7086 45.255 20.8926 44.917 20.0417 44.917H7.20833C6.35743 44.917 5.54138 45.255 4.9397 45.8567C4.33802 46.4584 4 47.2744 4 48.1253C4 48.9762 4.33802 49.7923 4.9397 50.394C5.54138 50.9956 6.35743 51.3337 7.20833 51.3337Z" fill="#BA4CFF"/>
<path d="M42.5 0C32.2892 0 22.4965 4.05624 15.2764 11.2764C8.05624 18.4965 4 28.2892 4 38.5C4 38.6957 4.02567 38.885 4.02887 39.0807C5.04783 38.7073 6.12315 38.5109 7.20833 38.5H20.0417C21.6166 38.4947 23.1687 38.8772 24.5608 39.6138C25.9529 40.3504 27.1422 41.4185 28.0237 42.7236C28.9052 44.0288 29.4519 45.5309 29.6153 47.0974C29.7787 48.6639 29.554 50.2465 28.9608 51.7055C30.2745 52.0502 31.4994 52.6713 32.5538 53.5273C33.6083 54.3833 34.4679 55.4544 35.0752 56.6691C35.6826 57.8839 36.0237 59.2142 36.0759 60.5714C36.128 61.9285 35.8899 63.2811 35.3775 64.5388C36.6606 64.8661 37.8606 65.4591 38.9001 66.2794C39.9396 67.0997 40.7953 68.129 41.4119 69.3008C42.0285 70.4727 42.3923 71.7609 42.4797 73.0821C42.5671 74.4034 42.3762 75.7283 41.9193 76.9711C42.115 76.9711 42.3043 77 42.5 77C52.7108 77 62.5035 72.9438 69.7236 65.7236C76.9438 58.5035 81 48.7108 81 38.5C81 28.2892 76.9438 18.4965 69.7236 11.2764C62.5035 4.05624 52.7108 0 42.5 0ZM54.3933 50.3933C53.7916 50.9948 52.9757 51.3326 52.125 51.3326C51.2743 51.3326 50.4584 50.9948 49.8567 50.3933L40.2317 40.7683C39.63 40.1668 39.2918 39.3508 39.2917 38.5V22.4583C39.2917 21.6074 39.6297 20.7914 40.2314 20.1897C40.833 19.588 41.6491 19.25 42.5 19.25C43.3509 19.25 44.167 19.588 44.7686 20.1897C45.3703 20.7914 45.7083 21.6074 45.7083 22.4583V37.1717L54.3933 45.8567C54.9948 46.4584 55.3326 47.2743 55.3326 48.125C55.3326 48.9757 54.9948 49.7916 54.3933 50.3933Z" fill="#BA4CFF"/>
</g>
<defs>
<filter id="filter0_d_3408_18" x="0" y="0" width="85" height="85" filterUnits="userSpaceOnUse" color-interpolation-filters="sRGB">
<feFlood flood-opacity="0" result="BackgroundImageFix"/>
<feColorMatrix in="SourceAlpha" type="matrix" values="0 0 0 0 0 0 0 0 0 0 0 0 0 0 0 0 0 0 127 0" result="hardAlpha"/>
<feOffset dy="4"/>
<feGaussianBlur stdDeviation="2"/>
<feComposite in2="hardAlpha" operator="out"/>
<feColorMatrix type="matrix" values="0 0 0 0 0 0 0 0 0 0 0 0 0 0 0 0 0 0 0.5 0"/>
<feBlend mode="normal" in2="BackgroundImageFix" result="effect1_dropShadow_3408_18"/>
<feBlend mode="normal" in="SourceGraphic" in2="effect1_dropShadow_3408_18" result="shape"/>
</filter>
</defs>
</svg>
