<svg width="800" height="799" viewBox="0 0 800 799" fill="none" xmlns="http://www.w3.org/2000/svg">
<path d="M26.9521 769.63C32.616 753.712 39.9892 733.473 48.2405 712.502C79.2943 633.376 95.75 609.721 102.829 602.665C113.424 592.045 126.56 584.892 140.817 581.937L145.748 580.912L200.972 525.055L267.082 601.419L215.668 650.662L214.593 655.716C211.664 669.974 204.486 683.108 193.891 693.753C186.811 700.784 163.179 717.286 84.0785 748.318C63.0854 756.544 42.8204 763.966 26.9521 769.63Z" fill="#FFB938"/>
<path d="M201.803 500.593L137.449 565.655C120.701 569.122 104.44 577.544 91.0628 590.923C56.8842 625.1 0 796.557 0 796.557C0 796.557 171.432 739.698 205.659 705.494C218.988 692.14 227.437 675.856 230.902 659.085L289.982 602.493L201.803 500.593ZM207.906 635.06L200.436 642.238L198.336 652.369C196.041 663.43 190.427 673.684 182.126 681.984C179.391 684.718 161.472 700.074 78.1241 732.79C70.165 735.89 62.3527 738.893 54.8342 741.701C57.6654 734.182 60.645 726.37 63.7699 718.458C96.4845 635.085 111.815 617.166 114.598 614.431C122.899 606.107 133.154 600.516 144.188 598.246L154.05 596.196L161.129 589.043L200.142 549.543L244.135 600.347L207.906 635.06Z" fill="#FFB938"/>
<path d="M312.348 660.672C321.674 656.302 331.001 651.662 340.277 646.804L530.116 511.213C537.88 503.962 545.545 496.54 553.114 489.021C557.459 484.628 561.806 480.233 566.054 475.789C565.321 562.285 525.673 656.913 450.383 732.23C425.287 757.302 398.089 778.419 369.721 795.484C369.526 795.606 368.401 796.265 368.401 796.265C362.103 799.684 354.045 798.731 348.723 793.409C346.966 791.626 345.695 789.551 344.914 787.354C344.914 787.354 344.328 785.622 344.181 784.864L309.904 661.794C310.737 661.429 311.518 661.038 312.348 660.672Z" fill="#D82800"/>
<path d="M324.262 233.923C319.818 238.195 315.424 242.541 311.029 246.91C303.509 254.453 296.088 262.119 288.861 269.883C255.611 274.57 153.222 459.747 153.222 459.747C148.387 469.025 143.75 478.328 139.355 487.677C138.964 488.484 138.622 489.288 138.232 490.095L15.137 455.816C14.4042 455.669 12.6464 455.083 12.6464 455.083C10.4496 454.302 8.39812 453.033 6.59192 451.25C1.27021 445.929 0.342119 437.896 3.76076 431.573C3.76076 431.573 4.39512 430.475 4.54199 430.279C21.5821 401.91 42.6752 374.714 67.7728 349.618C143.113 274.278 237.739 234.631 324.262 233.923Z" fill="#D82800"/>
<path d="M307.808 235.143C213.423 329.549 145.36 437.383 107.42 541.85C105.419 547.71 106.688 554.398 111.375 559.062L240.913 688.649C245.6 693.288 252.289 694.582 258.149 692.58C362.639 654.641 470.45 586.601 564.834 492.194C711.511 345.566 793.832 168.64 799.985 17.7637C800.18 13.2717 798.569 8.31558 795.15 4.8735C791.683 1.43142 786.752 -0.179471 782.212 0.0158351C631.338 6.1672 454.436 88.5146 307.808 235.143Z" fill="#E6E9ED"/>
<path d="M496.231 370.272C478.458 370.272 461.76 363.338 449.211 350.79C436.663 338.217 429.729 321.517 429.729 303.744C429.729 285.972 436.663 269.272 449.211 256.699C461.759 244.151 478.507 237.217 496.231 237.217C514.004 237.217 530.702 244.151 543.3 256.699C569.229 282.651 569.229 324.861 543.3 350.79C530.703 363.338 514.004 370.272 496.28 370.272C496.231 370.272 496.231 370.272 496.231 370.272Z" fill="#434A54"/>
<path d="M355.12 511.383C337.347 511.383 320.65 504.474 308.1 491.901C295.55 479.353 288.616 462.629 288.616 444.879C288.616 427.106 295.55 410.383 308.1 397.81C320.648 385.262 337.347 378.328 355.12 378.328C372.895 378.328 389.593 385.262 402.191 397.81C428.118 423.763 428.118 465.974 402.191 491.901C389.593 504.474 372.895 511.383 355.12 511.383Z" fill="#434A54"/>
<path d="M555.068 244.957C539.346 229.259 518.447 220.592 496.232 220.592C474.064 220.592 453.168 229.259 437.445 244.957C421.772 260.655 413.08 281.552 413.08 303.744C413.08 325.96 421.77 346.835 437.445 362.556C453.166 378.252 474.066 386.896 496.232 386.896C518.449 386.896 539.346 378.254 555.068 362.556C587.49 330.135 587.49 277.379 555.068 244.957ZM531.534 339.022C521.769 348.763 509.026 353.645 496.232 353.645C483.489 353.645 470.695 348.763 460.98 339.022C441.498 319.54 441.498 287.949 460.98 268.467C470.697 258.727 483.489 253.867 496.232 253.867C509.026 253.867 521.769 258.725 531.534 268.467C551.015 287.949 551.015 319.54 531.534 339.022Z" fill="#CCD1D9"/>
<path d="M355.12 361.728C332.904 361.728 312.056 370.369 296.332 386.067C280.61 401.764 271.967 422.663 271.967 444.88C271.967 467.073 280.609 487.945 296.332 503.668C312.055 519.366 332.904 528.033 355.12 528.033C377.339 528.033 398.236 519.366 413.959 503.668C446.38 471.248 446.38 418.488 413.959 386.067C398.236 370.369 377.339 361.728 355.12 361.728ZM390.424 480.133C380.659 489.899 367.914 494.756 355.12 494.756C342.377 494.756 329.584 489.899 319.868 480.133C300.385 460.649 300.385 429.06 319.868 409.578C329.585 399.836 342.377 394.978 355.12 394.978C367.914 394.978 380.659 399.836 390.424 409.578C409.906 429.058 409.906 460.649 390.424 480.133Z" fill="#CCD1D9"/>
<path d="M748.766 226.965L573.037 51.2595C644.618 20.1324 715.955 2.72513 782.212 0.0158351C786.752 -0.179471 791.683 1.43142 795.15 4.8735C798.569 8.31558 800.18 13.2717 799.985 17.7637C797.299 84.071 779.868 155.384 748.766 226.965Z" fill="#D82800"/>
</svg>
