<svg width="12" height="12" viewBox="0 0 12 12" fill="none" xmlns="http://www.w3.org/2000/svg">
<path d="M5 11.5C5 11.6326 4.94732 11.7598 4.85355 11.8536C4.75979 11.9473 4.63261 12 4.5 12H0.5C0.367392 12 0.240215 11.9473 0.146447 11.8536C0.0526784 11.7598 0 11.6326 0 11.5C0 11.3674 0.0526784 11.2402 0.146447 11.1464C0.240215 11.0527 0.367392 11 0.5 11H4.5C4.63261 11 4.75979 11.0527 4.85355 11.1464C4.94732 11.2402 5 11.3674 5 11.5Z" fill="#FFB938"/>
<path d="M0.5 10H3.5C3.63261 10 3.75979 9.94732 3.85355 9.85355C3.94732 9.75979 4 9.63261 4 9.5C4 9.36739 3.94732 9.24021 3.85355 9.14645C3.75979 9.05268 3.63261 9 3.5 9H0.5C0.367392 9 0.240215 9.05268 0.146447 9.14645C0.0526784 9.24021 0 9.36739 0 9.5C0 9.63261 0.0526784 9.75979 0.146447 9.85355C0.240215 9.94732 0.367392 10 0.5 10Z" fill="#FFB938"/>
<path d="M0.5 8H2.5C2.63261 8 2.75979 7.94732 2.85355 7.85355C2.94732 7.75979 3 7.63261 3 7.5C3 7.36739 2.94732 7.24021 2.85355 7.14645C2.75979 7.05268 2.63261 7 2.5 7H0.5C0.367392 7 0.240215 7.05268 0.146447 7.14645C0.0526784 7.24021 0 7.36739 0 7.5C0 7.63261 0.0526784 7.75979 0.146447 7.85355C0.240215 7.94732 0.367392 8 0.5 8Z" fill="#FFB938"/>
<path d="M6 0C4.4087 0 2.88258 0.632141 1.75736 1.75736C0.632141 2.88258 0 4.4087 0 6C0 6.0305 0.004 6.06 0.0045 6.0905C0.163298 6.0323 0.330881 6.00169 0.5 6H2.5C2.74545 5.99917 2.98733 6.05878 3.20428 6.17358C3.42123 6.28838 3.60658 6.45483 3.74396 6.65823C3.88134 6.86163 3.96652 7.09573 3.99199 7.33985C4.01746 7.58398 3.98244 7.83062 3.89 8.058C4.09472 8.11172 4.28562 8.20852 4.44995 8.34192C4.61427 8.47531 4.74824 8.64224 4.84289 8.83155C4.93755 9.02086 4.99071 9.22819 4.99884 9.43969C5.00696 9.65119 4.96985 9.86199 4.89 10.058C5.08996 10.109 5.27698 10.2014 5.43898 10.3293C5.60097 10.4571 5.73433 10.6175 5.83043 10.8001C5.92652 10.9828 5.98321 11.1835 5.99683 11.3894C6.01045 11.5953 5.9807 11.8018 5.9095 11.9955C5.94 11.9955 5.9695 12 6 12C7.5913 12 9.11742 11.3679 10.2426 10.2426C11.3679 9.11742 12 7.5913 12 6C12 4.4087 11.3679 2.88258 10.2426 1.75736C9.11742 0.632141 7.5913 0 6 0ZM7.8535 7.8535C7.75974 7.94724 7.63258 7.99989 7.5 7.99989C7.36742 7.99989 7.24026 7.94724 7.1465 7.8535L5.6465 6.3535C5.55273 6.25975 5.50003 6.1326 5.5 6V3.5C5.5 3.36739 5.55268 3.24021 5.64645 3.14645C5.74021 3.05268 5.86739 3 6 3C6.13261 3 6.25979 3.05268 6.35355 3.14645C6.44732 3.24021 6.5 3.36739 6.5 3.5V5.793L7.8535 7.1465C7.94724 7.24026 7.99989 7.36742 7.99989 7.5C7.99989 7.63258 7.94724 7.75974 7.8535 7.8535Z" fill="#FFB938"/>
</svg>
